<?xml version="1.0" encoding="UTF-8"?>
<svg xmlns="http://www.w3.org/2000/svg" version="1.1" xmlns:xlink="http://www.w3.org/1999/xlink" viewBox="0 0 247.2 45.4">
  <defs>
    <style>
      .cls-1 {
        fill: #00367c;
      }

      .cls-2 {
        fill: url(#_未命名漸層_105);
      }

      .cls-3 {
        fill: #9fa0a0;
      }
    </style>
    <linearGradient id="_未命名漸層_105" data-name="未命名漸層 105" x1="113.1" y1="17.2" x2="172.9" y2="17.2" gradientUnits="userSpaceOnUse">
      <stop offset="0" stop-color="#a34323"/>
      <stop offset="0" stop-color="#b35833"/>
      <stop offset=".1" stop-color="#dc905c"/>
      <stop offset=".2" stop-color="#e8a975"/>
      <stop offset=".2" stop-color="#fbd29f"/>
      <stop offset=".2" stop-color="#fde4b2"/>
      <stop offset=".4" stop-color="#f29a65"/>
      <stop offset=".5" stop-color="#ec925f"/>
      <stop offset=".6" stop-color="#e88d5b"/>
      <stop offset=".7" stop-color="#f3a172"/>
      <stop offset=".7" stop-color="#e69364"/>
      <stop offset=".8" stop-color="#d88354"/>
      <stop offset=".8" stop-color="#d58051"/>
      <stop offset=".8" stop-color="#cc7648"/>
      <stop offset=".8" stop-color="#d78254"/>
      <stop offset=".9" stop-color="#ea9669"/>
      <stop offset="1" stop-color="#913622"/>
    </linearGradient>
  </defs>
  <!-- Generator: Adobe Illustrator 28.6.0, SVG Export Plug-In . SVG Version: 1.2.0 Build 709)  -->
  <g>
    <g id="_圖層_1" data-name="圖層_1">
      <g>
        <g>
          <path class="cls-3" d="M9.5,33.3l.3-1.9h-3.2l.3-2h1.2c1,0,1.6-.6,1.8-1.5l.6-4h-1.8l-.5,3.6H4c.8-1.1,1.8-2.8,3-5.1h4.4l.3-1.9H2.4l-.3,1.9h2.7c-2,3.2-3,5.1-3.2,5.7,0,.8.2,1.2.9,1.2h2.2l-.3,2H1.1l-.3,1.9h3.4l-.4,2.8c-1.3,0-2.5,0-3.7,0l-.3,2c3.6,0,6.5-.2,9-.4l.3-2c-1.2.1-2.1.2-3.2.2l.4-2.7h3.2Z"/>
          <path class="cls-3" d="M14.6,20h-1.9c-.3,2.3-.9,4.2-1.6,5.6l-.5,3.3c.5-.5,1-1,1.5-1.7,0,2.4.3,4.5.9,6.3-.9,1.2-1.9,2.2-3.1,3l-.3,2.4c1.7-.8,3.1-2,4.4-3.5.9,1.5,2,2.7,3.5,3.5l.4-2.6c-1.1-.7-1.9-1.7-2.6-2.8,1.6-2.6,2.8-5.9,3.5-10h1l.3-2h-5.8c.1-.5.2-1,.3-1.5ZM16.8,23.5c-.6,3-1.3,5.6-2.4,7.7-.6-2.1-.7-4.6-.3-7.7h2.7Z"/>
          <path class="cls-3" d="M36.6,23.3h-4.3s.4-3.2.4-3.2h-2.1l-.4,3.2h-5.9l-.3,2h5.9c-.5,2.4-1.5,4.5-2.8,6.2-1.4,2-3.2,3.5-5.4,4.6l-.3,2.3c2.8-1.1,5.2-2.8,7-5.2,1.7-2.1,2.9-4.8,3.6-8h3.9c1.4,0,1.9.7,1.8,1.9,0,1.2-.1,2.5-.3,4-.2,1.8-.5,2.9-.8,3.6-.3.9-.9,1.3-1.8,1.4-1.9,0-3.4-.1-4.5-.4l-.3,2.2c1.2.2,2.7.3,4.5.3,2.1-.1,3.4-1,4.1-2.6.4-.8.7-2.3,1.1-4.6.2-1.4.3-2.6.4-3.6,0-1.2-.2-2.2-.7-2.9-.6-.7-1.4-1.2-2.6-1.2Z"/>
          <path class="cls-3" d="M58.5,24.7h0c-.2-.9-.8-1.4-1.6-1.4h-2.6c-.8,2-1.5,3.6-2.1,5-.2.4-.4.8-.5,1.2v.2c0,0,2,0,2,0h0c.5-1,1.1-2.4,2-4.6h.5c.4,0,.5.7.6,1h0c.3,1.4.5,2.1.7,3.4h0c0,.1,2,.1,2,.1v-.2c-.3-1.4-.6-3-1.1-4.7Z"/>
          <path class="cls-3" d="M52.6,30.6h-.2s-.3,2-.3,2h.1c2.5.4,3.6.9,5.6,1.9h.2c0,0,.3-2.2.3-2.2h-.1c-1.6-.7-2.7-1.2-5.7-1.7Z"/>
          <path class="cls-3" d="M52.1,34.1h-.2s-.3,2-.3,2h.1c2.4.6,3.4,1.3,5.2,2.6l.5.3.3-2.4-.3-.2c-1.5-1-2.6-1.7-5.3-2.4Z"/>
          <path class="cls-3" d="M49.5,27.3h-2.1v-.9h4.8l.3-1.9h-3l.2-1.4h-2l-.2,1.4h-2.9l-.3,1.9h1.4l-.6,4.2c-.2,1.6-.5,2.8-.9,3.7-.4,1-.8,1.7-1.2,2.2h0s-.3,2.7-.3,2.7l.3-.2c.8-.6,1.6-1.6,2.4-3,.7-1.1,1.2-2.8,1.6-5.4l.2-1.4h1.7c.4.1.5.4.5.8,0,1.1-.2,2.2-.4,3.5-.2,1.3-.4,2.4-.6,3,0,.3-.3.5-.7.5-.5,0-1,0-1.4-.1h-.2s-.3,1.9-.3,1.9h.2c.3,0,.8,0,1.4,0,1.4,0,2.4-.9,2.9-2.6.2-.9.4-1.8.5-2.6.3-1.9.4-3.3.5-4.1,0-.5-.1-1-.5-1.5-.4-.4-.8-.6-1.3-.6Z"/>
          <path class="cls-3" d="M60.9,36.6l-.3,2.3c2.8-1.3,4.5-3.4,4.9-6.3h-2c-.3,1.7-1.1,3-2.6,4Z"/>
          <path class="cls-3" d="M78.3,20.8h-5.9c0-.2.2-.4.2-.7h-1.9c-.4,1.3-1.2,2.4-2.3,3.2l-.4,2.6c1.4-.9,2.6-2.1,3.4-3.4h2c-.1,1.3-.2,2.6-.4,4-.2,1.1-.3,2.1-.5,3.2,0,.5-.4.7-.8.7s-1,0-1.2,0l-.3,1.8c.6,0,1.2,0,2,0,1.3,0,2.1-.6,2.3-1.7l.5-3.5c.2-1.2.3-2.7.5-4.4h2.4c.4,0,.6.3.6.6-.1.6-.5,1.2-.9,1.8h1.9c.2-.2.3-.5.5-.8.2-.4.3-.8.4-1.2,0-.6-.1-1.1-.5-1.5-.4-.4-.9-.7-1.6-.7Z"/>
          <path class="cls-3" d="M76.1,25.6c.1,3.1,1,5.1,2.8,5.9l.3-2.3c-.8-.8-1.3-2-1.3-3.7h-1.8Z"/>
          <path class="cls-3" d="M63.4,32h1.9l1.2-8.7c.8-.9,1.5-2,2.2-3.3h-2.1c-1.3,2.1-2.7,3.6-4.4,4.5l-.3,2.5c.8-.4,1.7-.9,2.4-1.5l-.9,6.5Z"/>
          <path class="cls-3" d="M68,35.7c.2-1.2.3-2.2.4-3h-1.9c-.1.8-.3,1.7-.4,2.8-.3,2,.7,3.1,2.8,3.1s4.2,0,6.3-.1l.3-1.9c-1.4.1-3.2.1-5.3.1s-2.2-.3-2.1-1Z"/>
          <path class="cls-3" d="M74.3,32.7c.9,1.7,1.7,3.9,2.1,5.9h2.2c-.4-2.1-1.1-4.1-2.1-5.9h-2.2Z"/>
          <path class="cls-3" d="M71.6,25.3h-1.7c-.2,1.7-1,3-2.4,3.7l-.3,2.2c2.5-1,3.9-3,4.4-5.9Z"/>
          <path class="cls-3" d="M72.6,36.1c0-1.1-.4-2.2-.9-3.4h-2.1c.4.8.8,2.3.9,3.4h2.1Z"/>
          <path class="cls-3" d="M89.2,22h-.7c.4-.5.7-1.1.9-1.8h-1.9c-.3.6-.6,1.2-1,1.8h-1.7l-2.3,16.4h4.7c.8,0,1.5-.4,2.2-1.2.5-.7.9-1.5,1.1-2.5.2-.7.5-2.2.8-4.3.4-2.6.5-4.6.5-5.8,0-.6-.2-1.2-.7-1.8-.4-.5-1.1-.8-1.8-.8ZM88.5,34.9c-.2.9-.6,1.6-1.3,1.6h-2.5l.8-5.8h3.9c-.3,2-.6,3.4-.8,4.3ZM89.6,28.7h-3.8l.7-4.9h2.2c.9.1,1.4.7,1.3,1.7,0,1-.1,2.1-.3,3.2Z"/>
          <path class="cls-3" d="M100.4,22.6c-.6-.6-1.4-1-2.5-1h-2c.2-.4.5-.9.7-1.5h-2c-.6,1.6-1.3,2.7-2.1,3.3l-.4,2.8c.9-.6,1.8-1.5,2.6-2.6h2.7c1.2,0,1.8.5,1.9,1.6,0,.6-.1,2.1-.4,4.4-.3,1.8-.6,3.5-.9,5-.4,1.3-1.3,2-2.5,2s-2.5,0-3.1-.2l-.3,2c1,.1,2.2.2,3.6.2,2.4-.2,3.9-1.5,4.3-3.7.2-.9.5-2.8.9-5.4.2-1.4.3-3,.3-4.6,0-.8-.2-1.5-.7-2.1Z"/>
          <path class="cls-3" d="M95,35.2c.2-3.4.3-5.6.2-8.5h-1.9c0,3,0,5.2-.3,8.5h1.9Z"/>
        </g>
        <g>
          <g>
            <g>
              <path class="cls-1" d="M157.1,41l.8-5.8h11.7l.5-3.8h-11.7l.4-2.6c-.2,0-.5,0-.7,0-1,0-2-.2-3-.4l-1.7,11.7c-3.6-1.2-6.2-4.3-5.7-6.6,0,0,.7-3.2,1.1-5h-3.8c-.8,5.8-2.9,10-6.3,12.7l-.6,4.4c3.1-1.6,5.6-3.9,7.4-7.1,2.3,4.4,7.9,6.6,16.6,6.6s6.8-.2,9-.4l.5-3.9c-2.3.3-5.4.5-9.3.5-2,0-3.8-.2-5.4-.4Z"/>
              <path class="cls-1" d="M198.8,6.1s-.8,5.3-1.1,7.7c-.5,3.5.6,5.6,1.6,8.2,1.9,4.7,5,9.1,9.6,12.4l-.6,4.6c-6.5-4.1-10.8-10.1-12.8-18-1.3,3.1-3,5.9-5.1,8.3-3.5,4.2-8.1,7.2-13.8,9.2l.6-4.4c4.6-2,8-4.3,10.7-7.9,3-3.6,4.9-7.9,5.8-12.9l1-7.3h4Z"/>
              <path class="cls-1" d="M228.4,34.8l1.2-8.7h-10.3l.5-3.6h10.3l1.3-8.9h-8.1c-1.5,2.9-3.7,5-6.5,6.3l.6-4.3c2.3-1.8,3.8-4.7,4.3-8.8h3.7c-.2,1.1-.4,2.2-.7,3.2h7.1l.5-3.9h3.8l-.5,3.9h11.6l-.5,3.6h-11.6l-1.3,8.9h10.8l-.5,3.6h-10.8l-1.2,8.7h13.9l-.5,3.7h-31.6l.5-3.7h14Z"/>
              <path class="cls-1" d="M135.2,27.5c1,1.1,1.4,2.5,1.3,4.3-.3,2-1.1,3.4-2.3,4.5-1.3,1.3-3,2-5,2h-21.9l1.8-12.7h21.7c2,0,3.5.6,4.5,1.9ZM119.8,30.5l.3-1.8h-7.8l-.3,1.8h7.8ZM119.2,35.2l.3-1.8h-7.8l-.3,1.8h7.8ZM123.6,30.5h9.2c-.3-1.1-1.2-1.8-2.7-1.8h-6.3l-.3,1.8ZM122.9,35.2h6.2c1.5,0,2.6-.7,3.2-1.8h-9.1l-.3,1.8Z"/>
              <path class="cls-1" d="M127.1.2l-.3,2.5h9.5c2.6,0,4.3,1.6,4.1,3.8-.3,1.8-.8,3.2-1.3,4.1h-3.7c.7-1.7,1.2-2.8,1.2-3.3.1-.9-.5-1.3-1.7-1.3h-22.5l-.6,4.5h-3.7l1.1-7.9h13.8s.3-2.4.3-2.4h3.9Z"/>
            </g>
            <polygon class="cls-1" points="133.5 7.6 132.4 10.6 114.6 10.6 115 7.6 133.5 7.6"/>
          </g>
          <path class="cls-2" d="M172.6,15.6c-.7-2.7-2.5-5.4-6.5-7.1-1.7-.7-3.9-1.2-5.7-1.4-7.1-.9-13.6,1.5-18.3,3.8-4.1,1.9-7.3,3.6-11.3,5.5-1.1-.4-5.4-2.3-7.1-2.9-1.5-.5-3.9-1.1-6.3-.6-1.6.3-3.2,1.5-3.9,2.9-.8,1.8-.4,3.8,1.1,5.1.7.6,1.5,1.1,2.3,1.4,1.7.7,3.4,1,5.1,1.1,3.4.2,6.6-.3,9.5-1.1,2.1-.6,3-.9,5-1.6,0,0,10.4,4.2,13.1,5.1,2.6,1,5.6,1.6,8.6,1.8,3,.2,6.5-.3,9.2-1.6,1.4-.7,2.6-1.5,3.5-2.6.9-1.1,1.5-2.4,1.8-3.7.2-1.3.2-2.6-.2-4.1ZM126.9,18c-1.6.6-3.2,1.1-5.4,1.3-1.4.1-4,.3-4.9-1.1-.3-.5-.4-1.3-.1-1.8.6-1,1.9-1.4,3-1.5,3-.1,8.5,2,9.3,2.2-.4.2-1.4.6-1.9.8ZM164.7,23.4c-3.5,2-11,1.2-15.1,0-2.2-.6-10.8-3.5-11-3.6,3.1-1.1,5.3-1.9,8.1-3.1,0,0,5.6-2,6.7-2.3,1.1-.3,4-1,6.5-1,2.1,0,4,.4,5.3,1.3,1.8,1.3,2.4,3.4,2.3,4.6-.1,1.6-1.1,3-2.8,4Z"/>
        </g>
      </g>
    </g>
  </g>
</svg>