<?xml version="1.0" encoding="UTF-8"?>
<svg xmlns="http://www.w3.org/2000/svg" version="1.1" xmlns:xlink="http://www.w3.org/1999/xlink" viewBox="0 0 283.1 72">
  <defs>
    <style>
      .cls-1 {
        fill: #103671;
      }

      .cls-2 {
        fill: url(#_新增漸層色票_6);
      }

      .cls-3 {
        fill: #fff;
      }

      .cls-4 {
        fill: url(#_未命名漸層_69);
      }

      .cls-5 {
        fill: url(#_未命名漸層);
      }

      .cls-6 {
        fill: url(#_未命名漸層_2);
      }

      .cls-7 {
        fill: #00367c;
      }

      .cls-8 {
        fill: #51b848;
      }

      .cls-9 {
        fill: url(#_新增漸層色票_6-2);
      }

      .cls-10 {
        fill: url(#_未命名漸層_3);
      }

      .cls-11 {
        fill: #51ae48;
      }
    </style>
    <linearGradient id="_未命名漸層" data-name="未命名漸層" x1="18.9" y1="159.4" x2="36.4" y2="141.9" gradientTransform="translate(0 73.3) scale(1 -1)" gradientUnits="userSpaceOnUse">
      <stop offset="0" stop-color="#e83e0b"/>
      <stop offset=".2" stop-color="#ea5006"/>
      <stop offset=".5" stop-color="#f08300"/>
      <stop offset="1" stop-color="#ffde00"/>
    </linearGradient>
    <linearGradient id="_未命名漸層_2" data-name="未命名漸層 2" x1="-7441.6" y1="-11024.6" x2="-7424" y2="-11042.1" gradientTransform="translate(-11005.7 -7493.5) rotate(-90) scale(1 -1)" gradientUnits="userSpaceOnUse">
      <stop offset="0" stop-color="#e83e0b"/>
      <stop offset=".2" stop-color="#ea5006"/>
      <stop offset=".5" stop-color="#f08300"/>
      <stop offset="1" stop-color="#ffde00"/>
    </linearGradient>
    <linearGradient id="_未命名漸層_3" data-name="未命名漸層 3" x1="53.3" y1="159.6" x2="36" y2="142.3" gradientTransform="translate(0 73.3) scale(1 -1)" gradientUnits="userSpaceOnUse">
      <stop offset="0" stop-color="#003483"/>
      <stop offset=".2" stop-color="#003686"/>
      <stop offset=".5" stop-color="#0057a4"/>
      <stop offset="1" stop-color="#009ce5"/>
    </linearGradient>
    <linearGradient id="_新增漸層色票_6" data-name="新增漸層色票 6" x1="17.5" y1="18.8" x2="35.1" y2="36.4" gradientUnits="userSpaceOnUse">
      <stop offset="0" stop-color="#da3f14"/>
      <stop offset=".2" stop-color="#dd4f12"/>
      <stop offset=".5" stop-color="#e58011"/>
      <stop offset="1" stop-color="#f3d523"/>
    </linearGradient>
    <linearGradient id="_新增漸層色票_6-2" data-name="新增漸層色票 6" x1="-3118.8" y1="4372" x2="-3101.1" y2="4389.7" gradientTransform="translate(-4354.5 -3065.5) rotate(-90)" xlink:href="#_新增漸層色票_6"/>
    <linearGradient id="_未命名漸層_69" data-name="未命名漸層 69" x1="52.1" y1="18.6" x2="34.7" y2="36" gradientUnits="userSpaceOnUse">
      <stop offset="0" stop-color="#113576"/>
      <stop offset=".2" stop-color="#0d367a"/>
      <stop offset=".5" stop-color="#005399"/>
      <stop offset="1" stop-color="#1791d1"/>
    </linearGradient>
  </defs>
  <!-- Generator: Adobe Illustrator 28.6.0, SVG Export Plug-In . SVG Version: 1.2.0 Build 709)  -->
  <g>
    <g id="_圖層_2">
      <g id="content">
        <g>
          <g>
            <rect class="cls-3" y="-105" width="72" height="72"/>
            <g>
              <polygon class="cls-7" points="1.6 -69 36 -103.4 1.6 -103.4 1.6 -69"/>
              <polygon class="cls-7" points="36 -34.6 1.6 -69 1.6 -34.6 36 -34.6"/>
              <polygon class="cls-7" points="36 -34.6 70.4 -69 70.4 -34.6 36 -34.6"/>
              <polygon class="cls-8" points="70.4 -69 36 -103.4 70.4 -103.4 70.4 -69"/>
              <polygon class="cls-5" points="36 -103.4 1.6 -69 36 -69 36 -103.4"/>
              <polygon class="cls-6" points="1.6 -69 36 -34.6 36 -69 1.6 -69"/>
              <polygon class="cls-3" points="70.4 -69 36 -34.6 36 -69 70.4 -69"/>
              <polygon class="cls-10" points="70.4 -69 36 -103.4 36 -69 70.4 -69"/>
            </g>
          </g>
          <g>
            <g>
              <path class="cls-3" d="M114.7-41.2c-.5.2-1,.3-1.6.3-2,0-3.9-1.6-3.9-4.3s1.7-4.2,4.1-4.3c.9,0,1.9.3,2.5.6h0s.8-1.4.8-1.4h0c-.8-.5-2.1-.9-3.3-.9-4.1,0-6.7,2.8-6.7,6,0,3.4,2.6,6.1,6.6,6.1,1.3,0,2.7-.3,3.9-.7h0v-4.9h-2.4v3.6h0ZM119.1-51.1v11.7h2.4v-11.7h-2.4ZM106.8-51.1h-2.5l-4,5v-5h-2.4v11.7h2.4v-5.8l4.3,5.8h3l-5.1-6.5s4.3-5.2,4.3-5.2Z"/>
              <g>
                <polygon class="cls-3" points="166.8 -45.8 171.1 -51.1 168.6 -51.1 164.7 -46.1 164.7 -51.1 162.2 -51.1 162.2 -39.4 164.7 -39.4 164.7 -45.2 168.9 -39.4 171.9 -39.4 166.8 -45.8"/>
                <path class="cls-3" d="M158.2-42.9c-2.2-3-4.4-5.6-6.6-8.2h0s-1.8,0-1.8,0v11.7h2v-8.3c2.2,3,4.4,5.6,6.6,8.2h0s1.8,0,1.8,0v-11.7h-2v8.2h0Z"/>
                <path class="cls-3" d="M135.2-45.7c.9-.3,2.2-1.1,2.2-2.8,0-1.6-1.4-2.5-3.4-2.5h-4.2v11.7h3.9c2.8,0,4.4-1.4,4.4-3.5s-1.5-2.7-2.9-2.9M132.2-49.6h1.2c1,0,1.7.4,1.7,1.4,0,1-.9,1.9-2.2,1.9h-.7v-3.3ZM133.4-40.9h-1.1v-3.8h1.1c1.3,0,2.2.6,2.2,1.9s-.9,1.9-2.2,1.9"/>
                <path class="cls-3" d="M142.8-51.1l-4.8,11.7h2.1l1.2-3.2h4l1.1,3.2h2.7l-4.4-11.7h-2,0ZM142-44.1c.5-1.5,1.1-2.8,1.5-4.5.5,1.7,1,3.1,1.5,4.5h-3Z"/>
              </g>
            </g>
            <g>
              <path class="cls-3" d="M226.1-72.4l5.3-2.7v-3.1l-6.7,3.4c-.8-1.7-1.2-3.4-1.3-5.3h8v-15.4c0-1.2-.9-2.1-2.1-2.1h-14v31.2s-2.1.5-2.2.5v3.6s9.4-2.9,9.5-2.9v-2.9c0,0-4.1.9-4,.9v-12.9h1.5c.4,8.1,6.8,14.9,14.2,17.4v-3.3c-3.4-1.7-6.3-3.6-8.2-6.4M218.7-94.4h9.7v4.2h-9.7v-4.2ZM218.7-87.4h9.7v4.2h-9.7v-4.2ZM207.4-86.2h3.2v-3.1h-9.1c1.8-2,3.4-3.8,4.7-5.9,2.4,3.1,6.4,6.4,6.4,6.4v-3.7c-2.2-1.8-5.3-6.1-5.3-6.1h-2.8c-1.5,3.1-3.5,6-6.6,8.7v3.7s2.1-1.5,2.6-2.1v2.1h3.6v3.3h-5.8v2.9h5.8v11.4c-2.3.5-4.5.9-6,1.2v3.6c0,0,14.6-3.7,14.6-3.6v-3c-1.5.4-3.7.8-5.4,1.2v-10.9c-.1,0,5.4,0,5.4,0v-2.9h-5.6v-3.3c.1,0,.1,0,.1,0ZM210.3-70.8c1-2.4,1.9-4.7,2.5-6.7h-2.9c-.4,1.9-1,3.6-1.9,6.1l2.3.7h0ZM201.2-77.5h-2.7c1,2.4,1.8,5.4,2,7.3l2.7-.8c-.2-2-1.1-4.7-2.1-6.5"/>
              <g>
                <path class="cls-3" d="M259.3-87.5v3.4h13v16.8c0,.8-.3,1.1-1,1.2-.7,0-3.6,0-5.2,0l.6,3.3c1.9.1,6,.2,7,0,1.9-.3,2.5-1.5,2.5-3.6v-17.6h7.1v-3.4h-23.9Z"/>
                <path class="cls-3" d="M246-80.5v3.5c1.2-.5,2.8-1.7,4.1-2.7v16.9h3.8v-20.7c1.8-2,3.6-5.9,4.6-7.9h-3.6c-1.8,4-4.9,7.7-8.9,10.9"/>
                <path class="cls-3" d="M256-99h-3.6c-1.4,3.7-4.3,6.8-6.2,7.7v3.7c6.4-3.4,9-9.3,9.8-11.4"/>
                <rect class="cls-3" x="260.8" y="-97.3" width="20.7" height="3.4"/>
              </g>
              <g>
                <path class="cls-3" d="M114.2-87.1h-15.1v2.9h15.1v-2.9ZM114.7-69.3l-3.7.6,1.4-4.1h-3l-1.6,4.7-2.8.5c-.2-1.5-.5-3.2-1.2-5.1h-3.2c.7,1.7,1.2,3.9,1.4,5.5-1.7.3-3,.5-4.2.6v3.5c4.1-.8,12.2-2.7,16.9-3.7v-2.5h0ZM101.2-88.7h13v-8.7h-3.2v5.9h-2.7v-7h-3.2v7.1h-2.7v-5.9h-3.2v6.5c0,1.2,1,2.2,2.2,2.2h0ZM101.2-73.9h13v-6.6c0-1.2-1-2.2-2.2-2.2h-13v6.6c0,1.2,1,2.2,2.2,2.2h0ZM102.4-80h8.4v3.5h-8.4s0-3.5,0-3.5ZM130.9-65.8c-.8,0-1-.4-1-1.2v-28.3c0-1.2-1-2.2-2.2-2.2h-9v17.6c0,6.3-.5,12.5-4.6,17h3.6c4.1-4.8,4.3-10.1,4.3-17v-14.7h4.1v28.1c0,2.1.6,3.3,2.5,3.6,1,.2,3.8.2,5.7,0l.6-3.1c-1.6.1-3.4,0-4.1,0h0Z"/>
                <path class="cls-3" d="M184.4-79.9h-9.4v-12.2h6.1v-2.9h-6.1v-3.6h-3.5v3.6h-11.7v-3.6h-3.5v3.6h-6.1v2.9h6.1v12.2h-9.4v3h8.7c-1.3,2.4-5.1,5.1-8.7,6.2v3.3c4.4-1.4,7.3-3.1,9.1-4.7v2.5h7.8v3.9h-13.3v3h30.3v-3h-13.3v-3.9h7.8v-2.5c1.8,1.6,4.6,3.3,9.1,4.7v-3.3c-3.6-1.1-7.4-3.8-8.7-6.2h8.7v-3h0ZM159.8-92h11.7v2.1h-11.7v-2.1ZM159.8-87h11.7v2.1h-11.7v-2.1ZM159.8-81.9h11.7v2.1h-11.7v-2.1ZM167.5-72.6v-3.1h-3.8v3.1h-7.3c1.9-1.8,2.8-3.4,3.1-4.3h12c.4.9,1.2,2.5,3.1,4.3h-7.3Z"/>
              </g>
            </g>
          </g>
        </g>
      </g>
      <g>
        <g>
          <polygon class="cls-1" points=".1 36 34.7 1.4 .1 1.4 .1 36"/>
          <polygon class="cls-1" points="34.7 70.6 .1 36 .1 70.6 34.7 70.6"/>
          <polygon class="cls-1" points="34.7 70.6 69.2 36 69.2 70.6 34.7 70.6"/>
          <polygon class="cls-11" points="69.2 36 34.7 1.4 69.2 1.4 69.2 36"/>
          <polygon class="cls-2" points="34.7 1.4 .1 36 34.7 36 34.7 1.4"/>
          <polygon class="cls-9" points=".1 36 34.7 70.6 34.7 36 .1 36"/>
          <polygon class="cls-3" points="69.2 36 34.7 70.6 34.7 36 69.2 36"/>
          <polygon class="cls-4" points="69.2 36 34.7 1.4 34.7 36 69.2 36"/>
        </g>
        <g>
          <g>
            <path class="cls-1" d="M113.8,64c-.5.2-1,.3-1.6.3-2,0-3.9-1.6-3.9-4.3,0-2.6,1.7-4.3,4.2-4.3.9,0,1.9.3,2.5.6h0s.8-1.4.8-1.4h0c-.8-.5-2.1-.9-3.4-.9-4.1,0-6.7,2.8-6.7,6,0,3.5,2.6,6.1,6.6,6.2,1.3,0,2.7-.3,3.9-.7h0v-4.9h-2.5v3.6ZM118.2,54v11.8h2.5v-11.8h-2.5ZM105.8,54h-2.5l-4,5v-5h-2.5v11.8h2.5v-5.8l4.3,5.8h3l-5.1-6.5,4.4-5.3Z"/>
            <g>
              <polygon class="cls-1" points="166.2 59.3 170.5 54 168 54 164 59 164 54 161.6 54 161.6 65.8 164 65.8 164 60 168.3 65.8 171.3 65.8 166.2 59.3"/>
              <path class="cls-1" d="M157.5,62.3c-2.2-3-4.4-5.6-6.6-8.2h0s-1.8,0-1.8,0v11.8h2v-8.3c2.2,3,4.4,5.6,6.6,8.3h0s1.8,0,1.8,0v-11.8h-2v8.3Z"/>
              <path class="cls-1" d="M134.4,59.4c.9-.3,2.2-1.1,2.2-2.9,0-1.6-1.4-2.5-3.4-2.5h-4.3s0,11.8,0,11.8h3.9c2.8,0,4.5-1.5,4.5-3.5,0-1.7-1.5-2.7-2.9-2.9M131.4,55.6h1.2c1,0,1.7.4,1.7,1.4,0,1.1-.9,1.9-2.2,1.9h-.7v-3.3ZM132.6,64.3h-1.1v-3.8h1.1c1.3,0,2.2.6,2.2,1.9s-.9,1.9-2.2,1.9"/>
              <path class="cls-1" d="M142,54l-4.8,11.8h2.1l1.2-3.2h4.1l1.1,3.2h2.7l-4.4-11.8h-2ZM141.2,61.1c.5-1.5,1.1-2.8,1.5-4.6.5,1.7,1,3.1,1.5,4.6h-3Z"/>
            </g>
          </g>
          <g>
            <path class="cls-1" d="M225.8,32.6l5.4-2.7v-3.1l-6.7,3.4c-.8-1.7-1.3-3.4-1.3-5.3h8.1v-15.5c0-1.2-1-2.1-2.1-2.1h-14.1v31.4s-2.1.5-2.2.5v3.6s9.5-2.9,9.5-2.9v-2.9c0,0-4.1.9-4,.9v-13h1.5c.4,8.1,6.8,15,14.3,17.5v-3.3c-3.5-1.7-6.3-3.6-8.3-6.5M218.3,10.5h9.8v4.2h-9.8v-4.2ZM218.3,17.5h9.8v4.2h-9.8v-4.2ZM206.9,18.7h3.3v-3.1h-9.1c1.8-2,3.4-3.8,4.8-5.9,2.4,3.1,6.4,6.5,6.4,6.5v-3.7c-2.2-1.8-5.3-6.2-5.3-6.2h-2.8c-1.5,3.1-3.5,6.1-6.6,8.8v3.7s2.1-1.5,2.6-2.1v2.1h3.6v3.3h-5.8v2.9h5.8v11.5c-2.3.5-4.5.9-6,1.2v3.7c0,0,14.6-3.7,14.7-3.6v-3c-1.5.4-3.8.8-5.5,1.2v-10.9c-.1,0,5.5,0,5.5,0v-2.9h-5.6v-3.3ZM209.9,34.2c1-2.4,1.9-4.7,2.5-6.8h-2.9c-.4,1.9-1,3.6-1.9,6.1l2.3.7ZM200.7,27.4h-2.7c1,2.4,1.8,5.4,2.1,7.4l2.7-.8c-.2-2-1.2-4.7-2.1-6.5"/>
            <g>
              <path class="cls-1" d="M259.1,17.4v3.5h13v16.9c0,.8-.3,1.1-1,1.2-.7,0-3.7,0-5.3,0l.6,3.3c1.9.1,6,.2,7.1,0,1.9-.3,2.5-1.5,2.5-3.6v-17.7h7.1v-3.5h-24Z"/>
              <path class="cls-1" d="M245.8,24.5v3.5c1.2-.5,2.8-1.7,4.2-2.7v17h3.8v-20.8c1.8-2,3.7-5.9,4.6-8h-3.6c-1.8,4-4.9,7.8-8.9,11"/>
              <path class="cls-1" d="M255.9,5.8h-3.6c-1.4,3.7-4.4,6.8-6.2,7.8v3.7c6.4-3.4,9.1-9.3,9.8-11.5"/>
              <rect class="cls-1" x="260.7" y="7.5" width="20.8" height="3.5"/>
            </g>
            <g>
              <path class="cls-1" d="M113.2,17.8h-15.2v2.9h15.2v-2.9ZM113.8,35.7l-3.7.6,1.4-4.1h-3l-1.6,4.7-2.8.5c-.2-1.5-.5-3.2-1.2-5.1h-3.2c.7,1.7,1.2,3.9,1.4,5.6-1.7.3-3,.4-4.2.6v3.5c4.2-.8,12.2-2.7,16.9-3.7v-2.5ZM100.2,16.2h13V7.4h-3.2v5.9h-2.8v-7.1h-3.2v7.1h-2.8v-5.9h-3.2v6.6c0,1.2,1,2.2,2.2,2.2ZM100.2,31.1h13v-6.6c0-1.2-1-2.2-2.2-2.2h-13v6.6c0,1.2,1,2.2,2.2,2.2ZM101.4,24.9h8.5v3.5h-8.5v-3.5ZM130,39.2c-.8,0-1-.4-1-1.2V9.6c0-1.2-1-2.2-2.2-2.2h-9.1v17.7c0,6.4-.5,12.6-4.6,17.1h3.7c4.2-4.8,4.3-10.1,4.3-17.1v-14.8h4.1v28.3c0,2.1.6,3.3,2.5,3.6,1,.2,3.8.2,5.7,0l.6-3.1c-1.6.1-3.4,0-4.1,0Z"/>
              <path class="cls-1" d="M183.8,25.1h-9.4v-12.2h6.1v-3h-6.1v-3.6h-3.5v3.6h-11.8v-3.6h-3.5v3.6h-6.1v3h6.1v12.2h-9.4v3h8.7c-1.3,2.4-5.1,5.1-8.7,6.2v3.4c4.5-1.4,7.3-3.1,9.1-4.7v2.5h7.9v3.9h-13.4v3h30.5v-3h-13.4v-3.9h7.9v-2.5c1.8,1.6,4.7,3.3,9.1,4.7v-3.4c-3.6-1.1-7.4-3.8-8.7-6.2h8.7v-3ZM159.1,12.8h11.7v2.1h-11.7v-2.1ZM159.1,17.9h11.7v2.1h-11.7v-2.1ZM159.1,23h11.7v2.1h-11.7v-2.1ZM166.9,32.4v-3.1h-3.8v3.1h-7.3c1.9-1.8,2.8-3.4,3.2-4.3h12.1c.4.9,1.2,2.5,3.2,4.3h-7.3Z"/>
            </g>
          </g>
        </g>
      </g>
    </g>
  </g>
</svg>